<svg enable-background="new 0 0 1024 1024" viewBox="0 0 1024 1024" xmlns="http://www.w3.org/2000/svg"><circle cx="512" cy="512" fill="#6e436c" r="512"/><path d="m715.8 332.4v306.2c0 4.3-2.5 8.3-6.4 10.2l-245.4 117.7c-1.6.8-3.2 1.1-4.9 1.1-2.1 0-4.2-.6-6-1.7-3.3-2.1-5.3-5.8-5.3-9.6v-116.6l-132.6-55.5c-4.2-1.8-7-5.9-7-10.5v-306.1c0-3.9 2-7.5 5.3-9.5 3.3-2.1 7.5-2.4 10.9-.7l255 122.3 120.1-57.6c3.5-1.6 7.6-1.4 10.9.7s5.4 5.7 5.4 9.6zm-268 282.9v-56.4l-73.5-29.6c-5.8-2.4-8.7-9-6.3-14.7 2.4-5.8 9-8.7 14.7-6.3l65.1 26.2v-46.2l-73.5-29.6c-5.8-2.4-8.7-9-6.3-14.7 2.4-5.8 9-8.7 14.7-6.3l65.1 26.2v-13.5c0-4.3 2.5-8.3 6.4-10.2l16.8-8.1-97.3-44.2c-5.8-2.6-8.2-9.3-5.7-15 2.6-5.8 9.3-8.2 15-5.7l114.4 52.1 55.8-26.8-222.3-106.8v280.6zm245.3 16.1v-281l-222.7 106.9v22.9 70.7 187.5zm-185.3-119.6c1.9 4.1 5.9 6.4 10.2 6.4 1.6 0 3.3-.4 4.9-1.1l127.7-61.7c5.7-2.7 8-9.4 5.3-15.1s-9.4-8-15.1-5.3l-127.8 61.7c-5.6 2.7-8 9.4-5.2 15.1zm0 70.7c1.9 4.1 5.9 6.4 10.2 6.4 1.6 0 3.3-.4 4.9-1.1l127.6-61.8c5.7-2.7 8-9.4 5.3-15.1s-9.4-8-15.1-5.3l-127.7 61.8c-5.6 2.7-8 9.4-5.2 15.1zm0 70.6c1.9 4.1 5.9 6.4 10.2 6.4 1.6 0 3.3-.4 4.9-1.1l127.7-61.7c5.7-2.7 8-9.4 5.3-15.1s-9.4-8-15.1-5.3l-127.8 61.7c-5.6 2.8-8 9.5-5.2 15.1z" fill="#fff"/></svg>